<svg width="41" height="40" viewBox="0 0 41 40" fill="none" xmlns="http://www.w3.org/2000/svg">
<g clip-path="url(#clip0_23_171)">
<rect x="0.5" y="16.6667" width="23.3333" height="23.3333" fill="#7595FD"/>
<path d="M32.1517 3.33333H15.5167C13.665 3.33333 12.1667 4.83167 12.1667 6.68333V16.0783L4.33 23.815C4.09519 24.0472 3.93467 24.344 3.8688 24.6676C3.80294 24.9912 3.8347 25.3271 3.96006 25.6326C4.08541 25.9382 4.29871 26.1996 4.57289 26.3837C4.84706 26.5678 5.16975 26.6663 5.5 26.6667V35C5.5 35.442 5.6756 35.866 5.98816 36.1785C6.30072 36.4911 6.72464 36.6667 7.16667 36.6667H33.8333C34.2754 36.6667 34.6993 36.4911 35.0118 36.1785C35.3244 35.866 35.5 35.442 35.5 35V6.68167C35.5 4.83167 34.0033 3.33333 32.1517 3.33333ZM18.7033 25.185V33.3333H8.83333V24.0533L13.8117 19.1383L18.7033 24.1433V25.185ZM22.1667 15H18.8333V11.6667H22.1667V15ZM28.8333 28.3333H25.5V25H28.8333V28.3333ZM28.8333 21.6667H25.5V18.3333H28.8333V21.6667ZM28.8333 15H25.5V11.6667H28.8333V15Z" fill="#292E3D"/>
<path d="M12.1667 25H15.5V28.3333H12.1667V25Z" fill="#14171F"/>
</g>
<defs>
<clipPath id="clip0_23_171">
<rect width="40" height="40" fill="white" transform="translate(0.5)"/>
</clipPath>
</defs>
</svg>
